<svg xmlns="http://www.w3.org/2000/svg" viewBox="0 0 145 32" width="100%" height="100%">
  <path d="M14 11c0 1.5.1 2.8-.7 4.1-.6 1.1-1.6 1.8-2.7 1.8-1.5 0-2.4-1.2-2.4-2.9 0-3.4 3-4 5.8-4v1zm4 9.6c-.1-.1-.1-.2-.2-.3-1.3-1.1-1.5-1.6-2.2-2.6-2.2 2.2-3.7 2.9-6.5 2.9-3.3 0-5.9-2.1-5.9-6.2 0-3.2 1.7-5.4 4.2-6.5 2.1-1 5.1-1.1 7.4-1.4v-.5c0-1-.1-2.1-.5-2.9-.5-.7-1.4-1-2.2-1-1.5 0-2.9.8-3.2 2.4-.1.4-.3.7-.7.7L.5 9.1c-.3-.1-.7-.3-.6-.8C.8 4.7 4.4 3.5 7.6 3.5c1.6 0 3.7.4 5 1.6C14 6.6 14 8.5 14 10.6v7.6c0 2.3.9 3.3 1.8 4.5.3.4.4 1-.1 1.3l-3.5 3.1c-.3.3-.8.2-1.1-.1z" fill="#000000" />
  <path d="M2.5 27c5.5 3.5 13 5.5 19.5 5.5 1.5 0 3-.1 4.5-.4.5-.1.7-.5.4-.8l-1.2-1.2c-.2-.2-.6-.2-.8 0-1 .2-2 .3-3 .3-5.5 0-12-1.8-17-4.8-.4-.3-.8 0-.8.4v.6c.1.3.2.5.4.8z" fill="#FF9900" />
  <text x="24" y="21" fill="#000000" font-family="-apple-system, BlinkMacSystemFont, 'Segoe UI', Roboto, sans-serif" font-weight="800" font-size="18" letter-spacing="-0.8px">amazon<tspan fill="#FF9900" font-weight="900">music</tspan></text>
</svg>