<svg xmlns="http://www.w3.org/2000/svg" viewBox="0 0 100 32" width="100%" height="100%">
  <g fill="#000000">
    <path d="M14.5 12.5c-.2-.6-.9-2-2.1-2-1.2 0-2.2.8-2.8.8-.6 0-1.4-.7-2.4-.7-1.3 0-2.5.8-3.2 2-1.4 2.4-1.4 6.3.1 8.5 1 1.4 1.8 2.5 3.3 2.5 1.4 0 1.9-1 3.5-1 1.6 0 2.1 1 3.5 1 1.5 0 2.3-1 3.3-2.5.7-1.1 1-2.1 1.1-2.2 0-.1-2.1-.8-2.1-3.2s2-2.9 2-2.9c0-1.8-1.5-2.5-1.5-2.5zM11.6 7c1-.7 1.6-1.7 1.6-2.9-1 .1-2.2.8-2.9 1.6-.7.8-1.3 1.9-1.3 3.1 1.1.1 2.2-.6 2.6-1.8z" transform="scale(1.2)" />
    <text x="28" y="21" font-family="-apple-system, BlinkMacSystemFont, 'Segoe UI', Roboto, sans-serif" font-weight="800" font-size="18" letter-spacing="-0.8px">Music</text>
  </g>
</svg>