<svg xmlns="http://www.w3.org/2000/svg" viewBox="0 0 110 32" width="100%" height="100%">
  <g fill="#1DB954">
    <path d="M16 0C7.16 0 0 7.16 0 16s7.16 16 16 16 16-7.16 16-16S24.84 0 16 0zm7.36 23.12c-.32.48-.88.64-1.36.32-3.76-2.32-8.48-2.8-14.08-1.52-.56.16-1.12-.24-1.28-.8-.16-.56.24-1.12.8-1.28 6.16-1.44 11.36-.88 15.6 1.76.48.32.64.88.32 1.52zm1.92-4.4c-.4.56-1.12.8-1.68.4-4.32-2.64-10.88-3.44-15.92-1.92-.64.16-1.36-.24-1.52-.88-.16-.64.24-1.36.88-1.52 5.76-1.76 13.04-.8 17.92 2.24.56.32.72 1.12.32 1.68zm.16-4.48C20.32 11.2 11.76 10.88 6.88 12.4c-.8.24-1.6-.24-1.84-1.04-.24-.8.24-1.6 1.04-1.84 5.6-1.68 15.04-1.36 20.96 2.16.72.4.96 1.36.56 2.08-.4.72-1.36.96-2.08.56z"/>
    <text x="38" y="22" font-family="-apple-system, BlinkMacSystemFont, 'Segoe UI', Roboto, sans-serif" font-weight="800" font-size="19" letter-spacing="-0.8px">Spotify</text>
  </g>
</svg>