<svg xmlns="http://www.w3.org/2000/svg" viewBox="0 0 120 32" width="100%" height="100%">
  <path d="M30.6 8.5c-.3-1.3-1.4-2.3-2.7-2.6-2.4-.6-11.9-.6-11.9-.6s-9.5 0-11.9.6c-1.3.3-2.4 1.3-2.7 2.6C.3 11 .3 16 .3 16s0 5 .7 7.5c.3 1.3 1.4 2.3 2.7 2.6 2.4.6 11.9.6 11.9.6s9.5 0 11.9-.6c1.3-.3 2.4-1.3 2.7-2.6.7-2.5.7-7.5.7-7.5s0-5-.7-7.5z" fill="#FF0000"/>
  <polygon points="12.5 11.5 21 16 12.5 20.5" fill="#FFFFFF"/>
  <text x="36" y="22" fill="#FFFFFF" font-family="-apple-system, BlinkMacSystemFont, 'Segoe UI', Roboto, sans-serif" font-weight="900" font-size="18" letter-spacing="-1px">YouTube</text>
</svg>
