<svg xmlns="http://www.w3.org/2000/svg" viewBox="0 0 100 100" width="100" height="100" fill="none">
  <!-- Background Blob -->
  <path d="M30,25 C45,15 70,10 80,25 C90,40 85,70 70,78 C55,86 25,75 15,60 C5,45 15,35 30,25 Z" fill="#FF7E40" fill-opacity="0.12" />
  <!-- Bar Chart Columns -->
  <rect x="22" y="52" width="10" height="22" rx="1" stroke="#11143E" stroke-width="2.5" fill="#FFFFFF" />
  <rect x="38" y="40" width="10" height="34" rx="1" stroke="#11143E" stroke-width="2.5" fill="#FFFFFF" />
  <rect x="54" y="28" width="10" height="46" rx="1" stroke="#11143E" stroke-width="2.5" fill="#FFFFFF" />
  <!-- Upwards Arrow -->
  <path d="M32,32 L68,14 M68,14 L54,14 M68,14 L68,26" stroke="#96E012" stroke-width="2.5" stroke-linecap="round" stroke-linejoin="round" />
  <!-- Currency symbol badge -->
  <circle cx="78" cy="62" r="10" stroke="#11143E" stroke-width="2.5" fill="#FFFFFF" />
  <path d="M78,57 L78,67 M75,59 L81,59 C81,59 75,60 75,62 C75,64 81,64 81,65 C81,67 75,67 75,67" stroke="#11143E" stroke-width="1.8" stroke-linecap="round" stroke-linejoin="round" fill="none" />
</svg>
